<?xml version="1.0" encoding="UTF-8" standalone="no"?><svg xmlns="http://www.w3.org/2000/svg" xmlns:xlink="http://www.w3.org/1999/xlink" contentScriptType="application/ecmascript" contentStyleType="text/css" height="505px" preserveAspectRatio="none" style="width:2222px;height:505px;" version="1.1" viewBox="0 0 2222 505" width="2222px" zoomAndPan="magnify"><defs><filter height="300%" id="f1j1xiw71rezr1" width="300%" x="-1" y="-1"><feGaussianBlur result="blurOut" stdDeviation="2.0"/><feColorMatrix in="blurOut" result="blurOut2" type="matrix" values="0 0 0 0 0 0 0 0 0 0 0 0 0 0 0 0 0 0 .4 0"/><feOffset dx="4.0" dy="4.0" in="blurOut2" result="blurOut3"/><feBlend in="SourceGraphic" in2="blurOut3" mode="normal"/></filter></defs><g><!--MD5=[4228603c383243c13d6fae33b4725ec5]
cluster Yandex\Eats\Digest--><polygon fill="#FFFFFF" filter="url(#f1j1xiw71rezr1)" points="22,72,179,72,186,94.2969,2200,94.2969,2200,493,22,493,22,72" style="stroke: #000000; stroke-width: 1.5;"/><line style="stroke: #000000; stroke-width: 1.5;" x1="22" x2="186" y1="94.2969" y2="94.2969"/><text fill="#000000" font-family="sans-serif" font-size="14" font-weight="bold" lengthAdjust="spacingAndGlyphs" textLength="151" x="26" y="86.9951">Yandex\Eats\Digest</text><!--MD5=[152412ee7fa481847a87349e9858366a]
cluster Yandex\Eats\Digest.Exception--><polygon fill="#FFFFFF" filter="url(#f1j1xiw71rezr1)" points="1111,121.5,1194,121.5,1201,143.7969,2176,143.7969,2176,418,1111,418,1111,121.5" style="stroke: #000000; stroke-width: 1.5;"/><line style="stroke: #000000; stroke-width: 1.5;" x1="1111" x2="1201" y1="143.7969" y2="143.7969"/><text fill="#000000" font-family="sans-serif" font-size="14" font-weight="bold" lengthAdjust="spacingAndGlyphs" textLength="77" x="1115" y="136.4951">Exception</text><!--MD5=[60c6ca26fbcfa0a97ce265ff9dfbb9da]
cluster Yandex\Eats\Digest.DigestAlgorithm--><polygon fill="#FFFFFF" filter="url(#f1j1xiw71rezr1)" points="721,115,853,115,860,137.2969,1087,137.2969,1087,469,721,469,721,115" style="stroke: #000000; stroke-width: 1.5;"/><line style="stroke: #000000; stroke-width: 1.5;" x1="721" x2="860" y1="137.2969" y2="137.2969"/><text fill="#000000" font-family="sans-serif" font-size="14" font-weight="bold" lengthAdjust="spacingAndGlyphs" textLength="126" x="725" y="129.9951">DigestAlgorithm</text><!--MD5=[50abbccd08e027996308f4d9c07e6bb7]
cluster Yandex\Eats\Digest.DigestAlgorithmFactory--><polygon fill="#FFFFFF" filter="url(#f1j1xiw71rezr1)" points="349,115,540,115,547,137.2969,697,137.2969,697,424.5,349,424.5,349,115" style="stroke: #000000; stroke-width: 1.5;"/><line style="stroke: #000000; stroke-width: 1.5;" x1="349" x2="547" y1="137.2969" y2="137.2969"/><text fill="#000000" font-family="sans-serif" font-size="14" font-weight="bold" lengthAdjust="spacingAndGlyphs" textLength="185" x="353" y="129.9951">DigestAlgorithmFactory</text><!--MD5=[b39c162c5770caa8e3300e0087c3f87e]
class Yandex\Eats\Digest.Digest--><rect fill="#FEFECE" filter="url(#f1j1xiw71rezr1)" height="124.8281" id="Yandex\Eats\Digest.Digest" style="stroke: #A80036; stroke-width: 1.5;" width="292" x="38" y="118"/><ellipse cx="159.75" cy="134" fill="#ADD1B2" rx="11" ry="11" style="stroke: #A80036; stroke-width: 1.0;"/><path d="M162.7188,139.6406 Q162.1406,139.9375 161.5,140.0859 Q160.8594,140.2344 160.1563,140.2344 Q157.6563,140.2344 156.3359,138.5859 Q155.0156,136.9375 155.0156,133.8125 Q155.0156,130.6875 156.3359,129.0313 Q157.6563,127.375 160.1563,127.375 Q160.8594,127.375 161.5078,127.5313 Q162.1563,127.6875 162.7188,127.9844 L162.7188,130.7031 Q162.0938,130.125 161.5,129.8516 Q160.9063,129.5781 160.2813,129.5781 Q158.9375,129.5781 158.25,130.6484 Q157.5625,131.7188 157.5625,133.8125 Q157.5625,135.9063 158.25,136.9766 Q158.9375,138.0469 160.2813,138.0469 Q160.9063,138.0469 161.5,137.7734 Q162.0938,137.5 162.7188,136.9219 L162.7188,139.6406 Z "/><text fill="#000000" font-family="sans-serif" font-size="12" lengthAdjust="spacingAndGlyphs" textLength="40" x="180.25" y="138.1543">Digest</text><line style="stroke: #A80036; stroke-width: 1.5;" x1="39" x2="329" y1="150" y2="150"/><rect fill="none" height="6" style="stroke: #C82930; stroke-width: 1.0;" width="6" x="46" y="158"/><text fill="#000000" font-family="sans-serif" font-size="11" lengthAdjust="spacingAndGlyphs" textLength="91" x="58" y="164.2104">string algorithm</text><rect fill="none" height="6" style="stroke: #C82930; stroke-width: 1.0;" width="6" x="46" y="170.8047"/><text fill="#000000" font-family="sans-serif" font-size="11" lengthAdjust="spacingAndGlyphs" textLength="65" x="58" y="177.0151">string hash</text><line style="stroke: #A80036; stroke-width: 1.5;" x1="39" x2="329" y1="183.6094" y2="183.6094"/><ellipse cx="49" cy="194.6094" fill="#84BE84" rx="3" ry="3" style="stroke: #038048; stroke-width: 1.0;"/><text fill="#000000" font-family="sans-serif" font-size="11" lengthAdjust="spacingAndGlyphs" text-decoration="underline" textLength="266" x="58" y="197.8198">fromHeader(string $headerFormatted) : Digest</text><ellipse cx="49" cy="207.4141" fill="#84BE84" rx="3" ry="3" style="stroke: #038048; stroke-width: 1.0;"/><text fill="#000000" font-family="sans-serif" font-size="11" lengthAdjust="spacingAndGlyphs" textLength="125" x="58" y="210.6245">getAlgorithm() : string</text><ellipse cx="49" cy="220.2188" fill="#84BE84" rx="3" ry="3" style="stroke: #038048; stroke-width: 1.0;"/><text fill="#000000" font-family="sans-serif" font-size="11" lengthAdjust="spacingAndGlyphs" textLength="100" x="58" y="223.4292">getHash() : string</text><ellipse cx="49" cy="233.0234" fill="#84BE84" rx="3" ry="3" style="stroke: #038048; stroke-width: 1.0;"/><text fill="#000000" font-family="sans-serif" font-size="11" lengthAdjust="spacingAndGlyphs" textLength="110" x="58" y="236.2339">__toString() : string</text><!--MD5=[981a47593585e97c264a88e9648b6cd6]
class Yandex\Eats\Digest.Exception.DigestException--><rect fill="#FEFECE" filter="url(#f1j1xiw71rezr1)" height="48" id="Yandex\Eats\Digest.Exception.DigestException" style="stroke: #A80036; stroke-width: 1.5;" width="133" x="1528.5" y="156.5"/><ellipse cx="1543.5" cy="172.5" fill="#A9DCDF" rx="11" ry="11" style="stroke: #A80036; stroke-width: 1.0;"/><path d="M1543.6094,167.8438 L1542.4531,172.9219 L1544.7813,172.9219 L1543.6094,167.8438 Z M1542.125,165.6094 L1545.1094,165.6094 L1548.4688,178 L1546.0156,178 L1545.25,174.9375 L1541.9688,174.9375 L1541.2188,178 L1538.7813,178 L1542.125,165.6094 Z "/><text fill="#000000" font-family="sans-serif" font-size="12" font-style="italic" lengthAdjust="spacingAndGlyphs" textLength="101" x="1557.5" y="176.6543">DigestException</text><line style="stroke: #A80036; stroke-width: 1.5;" x1="1529.5" x2="1660.5" y1="188.5" y2="188.5"/><line style="stroke: #A80036; stroke-width: 1.5;" x1="1529.5" x2="1660.5" y1="196.5" y2="196.5"/><!--MD5=[2a3876e9415a3ba7dd985e22fb60927d]
class Yandex\Eats\Digest.Exception.DigestFailedException--><rect fill="#FEFECE" filter="url(#f1j1xiw71rezr1)" height="48" id="Yandex\Eats\Digest.Exception.DigestFailedException" style="stroke: #A80036; stroke-width: 1.5;" width="170" x="1127" y="354"/><ellipse cx="1142" cy="370" fill="#ADD1B2" rx="11" ry="11" style="stroke: #A80036; stroke-width: 1.0;"/><path d="M1144.9688,375.6406 Q1144.3906,375.9375 1143.75,376.0859 Q1143.1094,376.2344 1142.4063,376.2344 Q1139.9063,376.2344 1138.5859,374.5859 Q1137.2656,372.9375 1137.2656,369.8125 Q1137.2656,366.6875 1138.5859,365.0313 Q1139.9063,363.375 1142.4063,363.375 Q1143.1094,363.375 1143.7578,363.5313 Q1144.4063,363.6875 1144.9688,363.9844 L1144.9688,366.7031 Q1144.3438,366.125 1143.75,365.8516 Q1143.1563,365.5781 1142.5313,365.5781 Q1141.1875,365.5781 1140.5,366.6484 Q1139.8125,367.7188 1139.8125,369.8125 Q1139.8125,371.9063 1140.5,372.9766 Q1141.1875,374.0469 1142.5313,374.0469 Q1143.1563,374.0469 1143.75,373.7734 Q1144.3438,373.5 1144.9688,372.9219 L1144.9688,375.6406 Z "/><text fill="#000000" font-family="sans-serif" font-size="12" lengthAdjust="spacingAndGlyphs" textLength="138" x="1156" y="374.1543">DigestFailedException</text><line style="stroke: #A80036; stroke-width: 1.5;" x1="1128" x2="1296" y1="386" y2="386"/><line style="stroke: #A80036; stroke-width: 1.5;" x1="1128" x2="1296" y1="394" y2="394"/><!--MD5=[2d2abeeae6e6aca4dd06b37d47dec7c2]
class Yandex\Eats\Digest.Exception.UnknownDigestAlgorithmException--><rect fill="#FEFECE" filter="url(#f1j1xiw71rezr1)" height="48" id="Yandex\Eats\Digest.Exception.UnknownDigestAlgorithmException" style="stroke: #A80036; stroke-width: 1.5;" width="249" x="1332.5" y="354"/><ellipse cx="1347.5" cy="370" fill="#ADD1B2" rx="11" ry="11" style="stroke: #A80036; stroke-width: 1.0;"/><path d="M1350.4688,375.6406 Q1349.8906,375.9375 1349.25,376.0859 Q1348.6094,376.2344 1347.9063,376.2344 Q1345.4063,376.2344 1344.0859,374.5859 Q1342.7656,372.9375 1342.7656,369.8125 Q1342.7656,366.6875 1344.0859,365.0313 Q1345.4063,363.375 1347.9063,363.375 Q1348.6094,363.375 1349.2578,363.5313 Q1349.9063,363.6875 1350.4688,363.9844 L1350.4688,366.7031 Q1349.8438,366.125 1349.25,365.8516 Q1348.6563,365.5781 1348.0313,365.5781 Q1346.6875,365.5781 1346,366.6484 Q1345.3125,367.7188 1345.3125,369.8125 Q1345.3125,371.9063 1346,372.9766 Q1346.6875,374.0469 1348.0313,374.0469 Q1348.6563,374.0469 1349.25,373.7734 Q1349.8438,373.5 1350.4688,372.9219 L1350.4688,375.6406 Z "/><text fill="#000000" font-family="sans-serif" font-size="12" lengthAdjust="spacingAndGlyphs" textLength="217" x="1361.5" y="374.1543">UnknownDigestAlgorithmException</text><line style="stroke: #A80036; stroke-width: 1.5;" x1="1333.5" x2="1580.5" y1="386" y2="386"/><line style="stroke: #A80036; stroke-width: 1.5;" x1="1333.5" x2="1580.5" y1="394" y2="394"/><!--MD5=[d332736eb3195d045bcf0a108d161190]
class Yandex\Eats\Digest.Exception.UnknownDigestFormatException--><rect fill="#FEFECE" filter="url(#f1j1xiw71rezr1)" height="48" id="Yandex\Eats\Digest.Exception.UnknownDigestFormatException" style="stroke: #A80036; stroke-width: 1.5;" width="234" x="1617" y="354"/><ellipse cx="1632" cy="370" fill="#ADD1B2" rx="11" ry="11" style="stroke: #A80036; stroke-width: 1.0;"/><path d="M1634.9688,375.6406 Q1634.3906,375.9375 1633.75,376.0859 Q1633.1094,376.2344 1632.4063,376.2344 Q1629.9063,376.2344 1628.5859,374.5859 Q1627.2656,372.9375 1627.2656,369.8125 Q1627.2656,366.6875 1628.5859,365.0313 Q1629.9063,363.375 1632.4063,363.375 Q1633.1094,363.375 1633.7578,363.5313 Q1634.4063,363.6875 1634.9688,363.9844 L1634.9688,366.7031 Q1634.3438,366.125 1633.75,365.8516 Q1633.1563,365.5781 1632.5313,365.5781 Q1631.1875,365.5781 1630.5,366.6484 Q1629.8125,367.7188 1629.8125,369.8125 Q1629.8125,371.9063 1630.5,372.9766 Q1631.1875,374.0469 1632.5313,374.0469 Q1633.1563,374.0469 1633.75,373.7734 Q1634.3438,373.5 1634.9688,372.9219 L1634.9688,375.6406 Z "/><text fill="#000000" font-family="sans-serif" font-size="12" lengthAdjust="spacingAndGlyphs" textLength="202" x="1646" y="374.1543">UnknownDigestFormatException</text><line style="stroke: #A80036; stroke-width: 1.5;" x1="1618" x2="1850" y1="386" y2="386"/><line style="stroke: #A80036; stroke-width: 1.5;" x1="1618" x2="1850" y1="394" y2="394"/><!--MD5=[d33a6af73c5028f87e1dbece816d9a30]
class Yandex\Eats\Digest.Exception.UnsupportedDigestAlgorithmException--><rect fill="#FEFECE" filter="url(#f1j1xiw71rezr1)" height="48" id="Yandex\Eats\Digest.Exception.UnsupportedDigestAlgorithmException" style="stroke: #A80036; stroke-width: 1.5;" width="274" x="1886" y="354"/><ellipse cx="1901" cy="370" fill="#ADD1B2" rx="11" ry="11" style="stroke: #A80036; stroke-width: 1.0;"/><path d="M1903.9688,375.6406 Q1903.3906,375.9375 1902.75,376.0859 Q1902.1094,376.2344 1901.4063,376.2344 Q1898.9063,376.2344 1897.5859,374.5859 Q1896.2656,372.9375 1896.2656,369.8125 Q1896.2656,366.6875 1897.5859,365.0313 Q1898.9063,363.375 1901.4063,363.375 Q1902.1094,363.375 1902.7578,363.5313 Q1903.4063,363.6875 1903.9688,363.9844 L1903.9688,366.7031 Q1903.3438,366.125 1902.75,365.8516 Q1902.1563,365.5781 1901.5313,365.5781 Q1900.1875,365.5781 1899.5,366.6484 Q1898.8125,367.7188 1898.8125,369.8125 Q1898.8125,371.9063 1899.5,372.9766 Q1900.1875,374.0469 1901.5313,374.0469 Q1902.1563,374.0469 1902.75,373.7734 Q1903.3438,373.5 1903.9688,372.9219 L1903.9688,375.6406 Z "/><text fill="#000000" font-family="sans-serif" font-size="12" lengthAdjust="spacingAndGlyphs" textLength="242" x="1915" y="374.1543">UnsupportedDigestAlgorithmException</text><line style="stroke: #A80036; stroke-width: 1.5;" x1="1887" x2="2159" y1="386" y2="386"/><line style="stroke: #A80036; stroke-width: 1.5;" x1="1887" x2="2159" y1="394" y2="394"/><!--MD5=[0bb12d436839be95ee6e00ea802b7a90]
class Yandex\Eats\Digest.DigestAlgorithm.DigestAlgorithmInterface--><rect fill="#FEFECE" filter="url(#f1j1xiw71rezr1)" height="60.8047" id="Yandex\Eats\Digest.DigestAlgorithm.DigestAlgorithmInterface" style="stroke: #A80036; stroke-width: 1.5;" width="187" x="810.5" y="150"/><ellipse cx="825.5" cy="166" fill="#B4A7E5" rx="11" ry="11" style="stroke: #A80036; stroke-width: 1.0;"/><path d="M821.4219,161.7656 L821.4219,159.6094 L828.8125,159.6094 L828.8125,161.7656 L826.3438,161.7656 L826.3438,169.8438 L828.8125,169.8438 L828.8125,172 L821.4219,172 L821.4219,169.8438 L823.8906,169.8438 L823.8906,161.7656 L821.4219,161.7656 Z "/><text fill="#000000" font-family="sans-serif" font-size="12" font-style="italic" lengthAdjust="spacingAndGlyphs" textLength="155" x="839.5" y="170.1543">DigestAlgorithmInterface</text><line style="stroke: #A80036; stroke-width: 1.5;" x1="811.5" x2="996.5" y1="182" y2="182"/><line style="stroke: #A80036; stroke-width: 1.5;" x1="811.5" x2="996.5" y1="190" y2="190"/><ellipse cx="821.5" cy="201" fill="#84BE84" rx="3" ry="3" style="stroke: #038048; stroke-width: 1.0;"/><text fill="#000000" font-family="sans-serif" font-size="11" lengthAdjust="spacingAndGlyphs" textLength="153" x="830.5" y="204.2104">hash(string $data) : Digest</text><!--MD5=[49d044458debff74003ab16378da397f]
class Yandex\Eats\Digest.DigestAlgorithm.OpenSslBasedHashAlgorithm--><rect fill="#FEFECE" filter="url(#f1j1xiw71rezr1)" height="150.4375" id="Yandex\Eats\Digest.DigestAlgorithm.OpenSslBasedHashAlgorithm" style="stroke: #A80036; stroke-width: 1.5;" width="333" x="737.5" y="303"/><ellipse cx="809.25" cy="319" fill="#ADD1B2" rx="11" ry="11" style="stroke: #A80036; stroke-width: 1.0;"/><path d="M812.2188,324.6406 Q811.6406,324.9375 811,325.0859 Q810.3594,325.2344 809.6563,325.2344 Q807.1563,325.2344 805.8359,323.5859 Q804.5156,321.9375 804.5156,318.8125 Q804.5156,315.6875 805.8359,314.0313 Q807.1563,312.375 809.6563,312.375 Q810.3594,312.375 811.0078,312.5313 Q811.6563,312.6875 812.2188,312.9844 L812.2188,315.7031 Q811.5938,315.125 811,314.8516 Q810.4063,314.5781 809.7813,314.5781 Q808.4375,314.5781 807.75,315.6484 Q807.0625,316.7188 807.0625,318.8125 Q807.0625,320.9063 807.75,321.9766 Q808.4375,323.0469 809.7813,323.0469 Q810.4063,323.0469 811,322.7734 Q811.5938,322.5 812.2188,321.9219 L812.2188,324.6406 Z "/><text fill="#000000" font-family="sans-serif" font-size="12" lengthAdjust="spacingAndGlyphs" textLength="181" x="829.75" y="323.1543">OpenSslBasedHashAlgorithm</text><line style="stroke: #A80036; stroke-width: 1.5;" x1="738.5" x2="1069.5" y1="335" y2="335"/><rect fill="none" height="6" style="stroke: #C82930; stroke-width: 1.0;" width="6" x="745.5" y="343"/><text fill="#000000" font-family="sans-serif" font-size="11" lengthAdjust="spacingAndGlyphs" textLength="166" x="757.5" y="349.2104">string mappedHashAlgorithm</text><rect fill="none" height="6" style="stroke: #C82930; stroke-width: 1.0;" width="6" x="745.5" y="355.8047"/><text fill="#000000" font-family="sans-serif" font-size="11" lengthAdjust="spacingAndGlyphs" textLength="119" x="757.5" y="362.0151">string hashAlgorithm</text><rect fill="none" height="6" style="stroke: #C82930; stroke-width: 1.0;" width="6" x="745.5" y="368.6094"/><text fill="#000000" font-family="sans-serif" font-size="11" lengthAdjust="spacingAndGlyphs" textLength="164" x="757.5" y="374.8198">string[] supportedAlgorithms</text><line style="stroke: #A80036; stroke-width: 1.5;" x1="738.5" x2="1069.5" y1="381.4141" y2="381.4141"/><ellipse cx="748.5" cy="392.4141" fill="#84BE84" rx="3" ry="3" style="stroke: #038048; stroke-width: 1.0;"/><text fill="#000000" font-family="sans-serif" font-size="11" lengthAdjust="spacingAndGlyphs" textLength="153" x="757.5" y="395.6245">hash(string $data) : Digest</text><ellipse cx="748.5" cy="405.2188" fill="#84BE84" rx="3" ry="3" style="stroke: #038048; stroke-width: 1.0;"/><text fill="#000000" font-family="sans-serif" font-size="11" lengthAdjust="spacingAndGlyphs" textLength="199" x="757.5" y="408.4292">getSupportedAlgorithms() : string[]</text><ellipse cx="748.5" cy="418.0234" fill="#84BE84" rx="3" ry="3" style="stroke: #038048; stroke-width: 1.0;"/><text fill="#000000" font-family="sans-serif" font-size="11" lengthAdjust="spacingAndGlyphs" textLength="198" x="757.5" y="421.2339">getMappedHashAlgorithm() : string</text><ellipse cx="748.5" cy="430.8281" fill="#84BE84" rx="3" ry="3" style="stroke: #038048; stroke-width: 1.0;"/><text fill="#000000" font-family="sans-serif" font-size="11" lengthAdjust="spacingAndGlyphs" textLength="154" x="757.5" y="434.0386">getHashAlgorithm() : string</text><rect fill="#F24D5C" height="6" style="stroke: #C82930; stroke-width: 1.0;" width="6" x="745.5" y="440.6328"/><text fill="#000000" font-family="sans-serif" font-size="11" lengthAdjust="spacingAndGlyphs" textLength="307" x="757.5" y="446.8433">findRealHashAlgorithm(string $hashAlgorithm) : string</text><!--MD5=[151a3b31babc1f8059ea98816ca33882]
class Yandex\Eats\Digest.DigestAlgorithmFactory.DigestAlgorithmFactoryInterface--><rect fill="#FEFECE" filter="url(#f1j1xiw71rezr1)" height="60.8047" id="Yandex\Eats\Digest.DigestAlgorithmFactory.DigestAlgorithmFactoryInterface" style="stroke: #A80036; stroke-width: 1.5;" width="315" x="365.5" y="150"/><ellipse cx="418.25" cy="166" fill="#B4A7E5" rx="11" ry="11" style="stroke: #A80036; stroke-width: 1.0;"/><path d="M414.1719,161.7656 L414.1719,159.6094 L421.5625,159.6094 L421.5625,161.7656 L419.0938,161.7656 L419.0938,169.8438 L421.5625,169.8438 L421.5625,172 L414.1719,172 L414.1719,169.8438 L416.6406,169.8438 L416.6406,161.7656 L414.1719,161.7656 Z "/><text fill="#000000" font-family="sans-serif" font-size="12" font-style="italic" lengthAdjust="spacingAndGlyphs" textLength="201" x="438.75" y="170.1543">DigestAlgorithmFactoryInterface</text><line style="stroke: #A80036; stroke-width: 1.5;" x1="366.5" x2="679.5" y1="182" y2="182"/><line style="stroke: #A80036; stroke-width: 1.5;" x1="366.5" x2="679.5" y1="190" y2="190"/><ellipse cx="376.5" cy="201" fill="#84BE84" rx="3" ry="3" style="stroke: #038048; stroke-width: 1.0;"/><text fill="#000000" font-family="sans-serif" font-size="11" lengthAdjust="spacingAndGlyphs" textLength="289" x="385.5" y="204.2104">make(string $algorithm) : DigestAlgorithmInterface</text><!--MD5=[1bee40a4c1d154d31f36159a8c138a2a]
class Yandex\Eats\Digest.DigestAlgorithmFactory.OpenSslAlgorithmFactory--><rect fill="#FEFECE" filter="url(#f1j1xiw71rezr1)" height="60.8047" id="Yandex\Eats\Digest.DigestAlgorithmFactory.OpenSslAlgorithmFactory" style="stroke: #A80036; stroke-width: 1.5;" width="308" x="369" y="347.5"/><ellipse cx="440.75" cy="363.5" fill="#ADD1B2" rx="11" ry="11" style="stroke: #A80036; stroke-width: 1.0;"/><path d="M443.7188,369.1406 Q443.1406,369.4375 442.5,369.5859 Q441.8594,369.7344 441.1563,369.7344 Q438.6563,369.7344 437.3359,368.0859 Q436.0156,366.4375 436.0156,363.3125 Q436.0156,360.1875 437.3359,358.5313 Q438.6563,356.875 441.1563,356.875 Q441.8594,356.875 442.5078,357.0313 Q443.1563,357.1875 443.7188,357.4844 L443.7188,360.2031 Q443.0938,359.625 442.5,359.3516 Q441.9063,359.0781 441.2813,359.0781 Q439.9375,359.0781 439.25,360.1484 Q438.5625,361.2188 438.5625,363.3125 Q438.5625,365.4063 439.25,366.4766 Q439.9375,367.5469 441.2813,367.5469 Q441.9063,367.5469 442.5,367.2734 Q443.0938,367 443.7188,366.4219 L443.7188,369.1406 Z "/><text fill="#000000" font-family="sans-serif" font-size="12" lengthAdjust="spacingAndGlyphs" textLength="156" x="461.25" y="367.6543">OpenSslAlgorithmFactory</text><line style="stroke: #A80036; stroke-width: 1.5;" x1="370" x2="676" y1="379.5" y2="379.5"/><line style="stroke: #A80036; stroke-width: 1.5;" x1="370" x2="676" y1="387.5" y2="387.5"/><ellipse cx="380" cy="398.5" fill="#84BE84" rx="3" ry="3" style="stroke: #038048; stroke-width: 1.0;"/><text fill="#000000" font-family="sans-serif" font-size="11" lengthAdjust="spacingAndGlyphs" textLength="282" x="389" y="401.7104">make(string $algorithm) : HashAlgorithmInterface</text><!--MD5=[dddee4036a7d61cc7cc98529fefcd4e6]
class \RuntimeException--><rect fill="#FEFECE" filter="url(#f1j1xiw71rezr1)" height="48" id="\RuntimeException" style="stroke: #A80036; stroke-width: 1.5;" width="148" x="1521" y="8"/><ellipse cx="1536" cy="24" fill="#ADD1B2" rx="11" ry="11" style="stroke: #A80036; stroke-width: 1.0;"/><path d="M1538.9688,29.6406 Q1538.3906,29.9375 1537.75,30.0859 Q1537.1094,30.2344 1536.4063,30.2344 Q1533.9063,30.2344 1532.5859,28.5859 Q1531.2656,26.9375 1531.2656,23.8125 Q1531.2656,20.6875 1532.5859,19.0313 Q1533.9063,17.375 1536.4063,17.375 Q1537.1094,17.375 1537.7578,17.5313 Q1538.4063,17.6875 1538.9688,17.9844 L1538.9688,20.7031 Q1538.3438,20.125 1537.75,19.8516 Q1537.1563,19.5781 1536.5313,19.5781 Q1535.1875,19.5781 1534.5,20.6484 Q1533.8125,21.7188 1533.8125,23.8125 Q1533.8125,25.9063 1534.5,26.9766 Q1535.1875,28.0469 1536.5313,28.0469 Q1537.1563,28.0469 1537.75,27.7734 Q1538.3438,27.5 1538.9688,26.9219 L1538.9688,29.6406 Z "/><text fill="#000000" font-family="sans-serif" font-size="12" lengthAdjust="spacingAndGlyphs" textLength="116" x="1550" y="28.1543">\RuntimeException</text><line style="stroke: #A80036; stroke-width: 1.5;" x1="1522" x2="1668" y1="40" y2="40"/><line style="stroke: #A80036; stroke-width: 1.5;" x1="1522" x2="1668" y1="48" y2="48"/><!--MD5=[dd5c10159234f972a1b421f4366ca5c1]
reverse link \RuntimeException to Yandex\Eats\Digest.Exception.DigestException--><path d="M1595,76.414 C1595,102.632 1595,135.001 1595,156.395 " fill="none" id="\RuntimeException&lt;-Yandex\Eats\Digest.Exception.DigestException" style="stroke: #A80036; stroke-width: 1.0;"/><polygon fill="none" points="1588,76.213,1595,56.213,1602,76.213,1588,76.213" style="stroke: #A80036; stroke-width: 1.0;"/><!--MD5=[6e3c8114ca5c1c0b4a7e1b38369a9e0c]
reverse link Yandex\Eats\Digest.Exception.DigestException to Yandex\Eats\Digest.Exception.DigestFailedException--><path d="M1512.54,211.894 C1455.56,234.181 1378.83,266.773 1315,303 C1288.57,317.998 1260.71,338.33 1240.63,353.887 " fill="none" id="Yandex\Eats\Digest.Exception.DigestException&lt;-Yandex\Eats\Digest.Exception.DigestFailedException" style="stroke: #A80036; stroke-width: 1.0;"/><polygon fill="none" points="1510.26,205.271,1531.43,204.597,1515.3,218.331,1510.26,205.271" style="stroke: #A80036; stroke-width: 1.0;"/><!--MD5=[234609b96089e24ff2d336b5514b28d0]
reverse link Yandex\Eats\Digest.Exception.DigestException to Yandex\Eats\Digest.Exception.UnknownDigestAlgorithmException--><path d="M1567,221.167 C1538.85,261.042 1496.42,321.151 1473.35,353.836 " fill="none" id="Yandex\Eats\Digest.Exception.DigestException&lt;-Yandex\Eats\Digest.Exception.UnknownDigestAlgorithmException" style="stroke: #A80036; stroke-width: 1.0;"/><polygon fill="none" points="1561.38,216.997,1578.63,204.694,1572.81,225.07,1561.38,216.997" style="stroke: #A80036; stroke-width: 1.0;"/><!--MD5=[81948fc50527538c9f594aeb6173180f]
reverse link Yandex\Eats\Digest.Exception.DigestException to Yandex\Eats\Digest.Exception.UnknownDigestFormatException--><path d="M1623.2,221.167 C1651.55,261.042 1694.29,321.151 1717.53,353.836 " fill="none" id="Yandex\Eats\Digest.Exception.DigestException&lt;-Yandex\Eats\Digest.Exception.UnknownDigestFormatException" style="stroke: #A80036; stroke-width: 1.0;"/><polygon fill="none" points="1617.38,225.05,1611.49,204.694,1628.79,216.938,1617.38,225.05" style="stroke: #A80036; stroke-width: 1.0;"/><!--MD5=[ce4a05732a32c90b1781550769374fb7]
reverse link Yandex\Eats\Digest.Exception.DigestException to Yandex\Eats\Digest.Exception.UnsupportedDigestAlgorithmException--><path d="M1666.85,212.643 C1722.27,236.842 1800.75,271.48 1869,303 C1905.09,319.666 1945.59,339.16 1976,353.955 " fill="none" id="Yandex\Eats\Digest.Exception.DigestException&lt;-Yandex\Eats\Digest.Exception.UnsupportedDigestAlgorithmException" style="stroke: #A80036; stroke-width: 1.0;"/><polygon fill="none" points="1663.79,218.949,1648.26,204.541,1669.39,206.115,1663.79,218.949" style="stroke: #A80036; stroke-width: 1.0;"/><!--MD5=[f22ca554c5d96513dced7e75e0721bdc]
reverse link Yandex\Eats\Digest.DigestAlgorithm.DigestAlgorithmInterface to Yandex\Eats\Digest.DigestAlgorithm.OpenSslBasedHashAlgorithm--><path d="M904,231.229 C904,252.89 904,278.736 904,302.608 " fill="none" id="Yandex\Eats\Digest.DigestAlgorithm.DigestAlgorithmInterface&lt;-Yandex\Eats\Digest.DigestAlgorithm.OpenSslBasedHashAlgorithm" style="stroke: #A80036; stroke-width: 1.0;"/><polygon fill="none" points="897,231.192,904,211.192,911,231.192,897,231.192" style="stroke: #A80036; stroke-width: 1.0;"/><!--MD5=[3836cecd15e732338a510659e3813ee6]
reverse link Yandex\Eats\Digest.DigestAlgorithmFactory.DigestAlgorithmFactoryInterface to Yandex\Eats\Digest.DigestAlgorithmFactory.OpenSslAlgorithmFactory--><path d="M523,231.43 C523,268.08 523,316.631 523,347.349 " fill="none" id="Yandex\Eats\Digest.DigestAlgorithmFactory.DigestAlgorithmFactoryInterface&lt;-Yandex\Eats\Digest.DigestAlgorithmFactory.OpenSslAlgorithmFactory" style="stroke: #A80036; stroke-width: 1.0;"/><polygon fill="none" points="516,231.192,523,211.192,530,231.192,516,231.192" style="stroke: #A80036; stroke-width: 1.0;"/><!--MD5=[7131a1c57c02dc862d40cd03062928c2]
@startuml
namespace Yandex\Eats\Digest {
    namespace Exception {
        abstract class DigestException {
        }
        class DigestFailedException {
        }
        class UnknownDigestAlgorithmException {
        }
        class UnknownDigestFormatException {
        }
        class UnsupportedDigestAlgorithmException {
        }
    }
    
    namespace DigestAlgorithm {
        interface DigestAlgorithmInterface {
            + hash(string $data) : Digest
        }
        
        class OpenSslBasedHashAlgorithm {
            - string mappedHashAlgorithm
            - string hashAlgorithm
            - string[] supportedAlgorithms
            + hash(string $data) : Digest
            + getSupportedAlgorithms() : string[]
            + getMappedHashAlgorithm() : string
            + getHashAlgorithm() : string
            - findRealHashAlgorithm(string $hashAlgorithm) : string
        }
    }
    
    namespace DigestAlgorithmFactory {
        interface DigestAlgorithmFactoryInterface {
            + make(string $algorithm) : DigestAlgorithmInterface
        }
        
        class OpenSslAlgorithmFactory {
            + make(string $algorithm) : HashAlgorithmInterface
        }
    }
    
    class Digest {
        - string algorithm
        - string hash
        + {static} fromHeader(string $headerFormatted) : Digest
        + getAlgorithm() : string
        + getHash() : string
        + __toString() : string
    }
}

"\RuntimeException" <|- - "Yandex\Eats\Digest.Exception.DigestException"
"Yandex\Eats\Digest.Exception.DigestException" <|- - "Yandex\Eats\Digest.Exception.DigestFailedException"
"Yandex\Eats\Digest.Exception.DigestException" <|- - "Yandex\Eats\Digest.Exception.UnknownDigestAlgorithmException"
"Yandex\Eats\Digest.Exception.DigestException" <|- - "Yandex\Eats\Digest.Exception.UnknownDigestFormatException"
"Yandex\Eats\Digest.Exception.DigestException" <|- - "Yandex\Eats\Digest.Exception.UnsupportedDigestAlgorithmException"

"Yandex\Eats\Digest.DigestAlgorithm.DigestAlgorithmInterface" <|- - "Yandex\Eats\Digest.DigestAlgorithm.OpenSslBasedHashAlgorithm"

"Yandex\Eats\Digest.DigestAlgorithmFactory.DigestAlgorithmFactoryInterface" <|- - "Yandex\Eats\Digest.DigestAlgorithmFactory.OpenSslAlgorithmFactory"
@enduml

PlantUML version 1.2019.11(Sun Sep 22 10:02:15 UTC 2019)
(GPL source distribution)
Java Runtime: OpenJDK Runtime Environment
JVM: OpenJDK 64-Bit Server VM
Java Version: 1.8.0_222-b10
Operating System: Linux
Default Encoding: UTF-8
Language: en
Country: null
--></g></svg>